{
  "accessors": [
    {
      "bufferView": 2,
      "componentType": 5126,
      "count": 65532,
      "max": [
        0.4997558891773224,
        0.5,
        0.17266909778118134
      ],
      "min": [
        -0.5,
        -0.4997558891773224,
        0.0
      ],
      "type": "VEC3"
    },
    {
      "bufferView": 2,
      "byteOffset": 786384,
      "componentType": 5126,
      "count": 65532,
      "max": [
        0.983426034450531,
        0.9631838202476501,
        1.0
      ],
      "min": [
        -0.9774468541145325,
        -0.975407063961029,
        0.1173124685883522
      ],
      "type": "VEC3"
    },
    {
      "bufferView": 1,
      "componentType": 5126,
      "count": 65532,
      "max": [
        0.9997559189796448,
        1.0
      ],
      "min": [
        0.0,
        0.00024408100580330938
      ],
      "type": "VEC2"
    },
    {
      "bufferView": 0,
      "componentType": 5125,
      "count": 344676,
      "type": "SCALAR"
    },
    {
      "bufferView": 2,
      "byteOffset": 1572768,
      "componentType": 5126,
      "count": 65532,
      "max": [
        0.4987795948982239,
        0.498047411441803,
        0.14880689978599548
      ],
      "min": [
        -0.46875759959220886,
        -0.21857459843158722,
        0.0033532660454511642
      ],
      "type": "VEC3"
    },
    {
      "bufferView": 2,
      "byteOffset": 2359152,
      "componentType": 5126,
      "count": 65532,
      "max": [
        0.9650229811668396,
        0.9686033725738525,
        0.9999998211860657
      ],
      "min": [
        -0.9827377200126648,
        -0.9713341593742371,
        0.1820463240146637
      ],
      "type": "VEC3"
    },
    {
      "bufferView": 1,
      "byteOffset": 524256,
      "componentType": 5126,
      "count": 65532,
      "max": [
        0.9987795948982239,
        0.998047411441803
      ],
      "min": [
        0.03124237060546875,
        0.2814253866672516
      ],
      "type": "VEC2"
    },
    {
      "bufferView": 0,
      "byteOffset": 1378704,
      "componentType": 5125,
      "count": 326589,
      "type": "SCALAR"
    },
    {
      "bufferView": 2,
      "byteOffset": 3145536,
      "componentType": 5126,
      "count": 65532,
      "max": [
        0.484134703874588,
        0.498047411441803,
        0.15379390120506287
      ],
      "min": [
        -0.49951180815696716,
        -0.015499169938266277,
        0.044449418783187866
      ],
      "type": "VEC3"
    },
    {
      "bufferView": 2,
      "byteOffset": 3931920,
      "componentType": 5126,
      "count": 65532,
      "max": [
        0.9821681976318359,
        0.9580750465393066,
        0.999998927116394
      ],
      "min": [
        -0.9742389917373657,
        -0.9803450703620911,
        0.1227911189198494
      ],
      "type": "VEC3"
    },
    {
      "bufferView": 1,
      "byteOffset": 1048512,
      "componentType": 5126,
      "count": 65532,
      "max": [
        0.9841346740722656,
        0.998047411441803
      ],
      "min": [
        0.00048816209891811013,
        0.48450079560279846
      ],
      "type": "VEC2"
    },
    {
      "bufferView": 0,
      "byteOffset": 2685060,
      "componentType": 5125,
      "count": 314934,
      "type": "SCALAR"
    },
    {
      "bufferView": 2,
      "byteOffset": 4718304,
      "componentType": 5126,
      "count": 65532,
      "max": [
        0.4987795948982239,
        0.498047411441803,
        0.17266909778118134
      ],
      "min": [
        -0.46875759959220886,
        0.00012204050290165469,
        0.04918484017252922
      ],
      "type": "VEC3"
    },
    {
      "bufferView": 2,
      "byteOffset": 5504688,
      "componentType": 5126,
      "count": 65532,
      "max": [
        0.9883261322975159,
        0.9648118019104004,
        0.9999967217445374
      ],
      "min": [
        -0.981393575668335,
        -0.9797729253768921,
        0.13781675696372986
      ],
      "type": "VEC3"
    },
    {
      "bufferView": 1,
      "byteOffset": 1572768,
      "componentType": 5126,
      "count": 65532,
      "max": [
        0.9987795948982239,
        0.998047411441803
      ],
      "min": [
        0.03124237060546875,
        0.5001220703125
      ],
      "type": "VEC2"
    },
    {
      "bufferView": 0,
      "byteOffset": 3944796,
      "componentType": 5125,
      "count": 259596,
      "type": "SCALAR"
    },
    {
      "bufferView": 2,
      "byteOffset": 6291072,
      "componentType": 5126,
      "count": 65532,
      "max": [
        0.4216499924659729,
        0.4570417106151581,
        0.14359770715236664
      ],
      "min": [
        -0.5,
        -0.43727120757102966,
        4.2210529500152916e-05
      ],
      "type": "VEC3"
    },
    {
      "bufferView": 2,
      "byteOffset": 7077456,
      "componentType": 5126,
      "count": 65532,
      "max": [
        0.9863454103469849,
        0.9541803598403931,
        0.999991238117218
      ],
      "min": [
        -0.9876179695129395,
        -0.9860183000564575,
        0.11150497943162918
      ],
      "type": "VEC3"
    },
    {
      "bufferView": 1,
      "byteOffset": 2097024,
      "componentType": 5126,
      "count": 65532,
      "max": [
        0.9216499924659729,
        0.9570416808128357
      ],
      "min": [
        0.0,
        0.06272882223129272
      ],
      "type": "VEC2"
    },
    {
      "bufferView": 0,
      "byteOffset": 4983180,
      "componentType": 5125,
      "count": 307761,
      "type": "SCALAR"
    },
    {
      "bufferView": 2,
      "byteOffset": 7863840,
      "componentType": 5126,
      "count": 7149,
      "max": [
        -0.023553820326924324,
        0.2500610053539276,
        0.13332639634609222
      ],
      "min": [
        -0.5,
        -0.21857459843158722,
        0.00048435659846290946
      ],
      "type": "VEC3"
    },
    {
      "bufferView": 2,
      "byteOffset": 7949628,
      "componentType": 5126,
      "count": 7149,
      "max": [
        0.9791483283042908,
        0.8951067924499512,
        0.9998998641967773
      ],
      "min": [
        -0.9412077069282532,
        -0.9725295901298523,
        0.11567696928977966
      ],
      "type": "VEC3"
    },
    {
      "bufferView": 1,
      "byteOffset": 2621280,
      "componentType": 5126,
      "count": 7149,
      "max": [
        0.4764462113380432,
        0.7500609755516052
      ],
      "min": [
        0.0,
        0.2814253866672516
      ],
      "type": "VEC2"
    },
    {
      "bufferView": 0,
      "byteOffset": 6214224,
      "componentType": 5125,
      "count": 21105,
      "type": "SCALAR"
    }
  ],
  "asset": {
    "extras": {
      "author": "TastefullBrick (https://sketchfab.com/tastefullbrick)",
      "license": "CC-BY-4.0 (http://creativecommons.org/licenses/by/4.0/)",
      "source": "https://sketchfab.com/3d-models/canyon-cliff-face-low-poly-df10be37cc064c6882c25dcc74a261f2",
      "title": "Canyon Cliff Face Low Poly"
    },
    "generator": "Sketchfab-12.66.0",
    "version": "2.0"
  },
  "bufferViews": [
    {
      "buffer": 0,
      "byteLength": 6298644,
      "name": "floatBufferViews",
      "target": 34963
    },
    {
      "buffer": 0,
      "byteLength": 2678472,
      "byteOffset": 6298644,
      "byteStride": 8,
      "name": "floatBufferViews",
      "target": 34962
    },
    {
      "buffer": 0,
      "byteLength": 8035416,
      "byteOffset": 8977116,
      "byteStride": 12,
      "name": "floatBufferViews",
      "target": 34962
    }
  ],
  "buffers": [
    {
      "byteLength": 17012532,
      "uri": "scene.bin"
    }
  ],
  "images": [
    {
      "uri": "textures/material_0_baseColor.png"
    }
  ],
  "materials": [
    {
      "doubleSided": true,
      "name": "material_0",
      "pbrMetallicRoughness": {
        "baseColorTexture": {
          "index": 0
        },
        "metallicFactor": 0.6875068372918446,
        "roughnessFactor": 0.8210327716699173
      }
    }
  ],
  "meshes": [
    {
      "name": "Object_0",
      "primitives": [
        {
          "attributes": {
            "NORMAL": 1,
            "POSITION": 0,
            "TEXCOORD_0": 2
          },
          "indices": 3,
          "material": 0,
          "mode": 4
        }
      ]
    },
    {
      "name": "Object_1",
      "primitives": [
        {
          "attributes": {
            "NORMAL": 5,
            "POSITION": 4,
            "TEXCOORD_0": 6
          },
          "indices": 7,
          "material": 0,
          "mode": 4
        }
      ]
    },
    {
      "name": "Object_2",
      "primitives": [
        {
          "attributes": {
            "NORMAL": 9,
            "POSITION": 8,
            "TEXCOORD_0": 10
          },
          "indices": 11,
          "material": 0,
          "mode": 4
        }
      ]
    },
    {
      "name": "Object_3",
      "primitives": [
        {
          "attributes": {
            "NORMAL": 13,
            "POSITION": 12,
            "TEXCOORD_0": 14
          },
          "indices": 15,
          "material": 0,
          "mode": 4
        }
      ]
    },
    {
      "name": "Object_4",
      "primitives": [
        {
          "attributes": {
            "NORMAL": 17,
            "POSITION": 16,
            "TEXCOORD_0": 18
          },
          "indices": 19,
          "material": 0,
          "mode": 4
        }
      ]
    },
    {
      "name": "Object_5",
      "primitives": [
        {
          "attributes": {
            "NORMAL": 21,
            "POSITION": 20,
            "TEXCOORD_0": 22
          },
          "indices": 23,
          "material": 0,
          "mode": 4
        }
      ]
    }
  ],
  "nodes": [
    {
      "children": [
        1
      ],
      "matrix": [
        1.0,
        0.0,
        0.0,
        0.0,
        0.0,
        2.220446049250313e-16,
        -1.0,
        0.0,
        0.0,
        1.0,
        2.220446049250313e-16,
        0.0,
        0.0,
        0.0,
        0.0,
        1.0
      ],
      "name": "Sketchfab_model"
    },
    {
      "children": [
        2,
        3,
        4,
        5,
        6,
        7
      ],
      "name": "Mesher.obj.cleaner.materialmerger.gles"
    },
    {
      "mesh": 0,
      "name": "Object_2"
    },
    {
      "mesh": 1,
      "name": "Object_3"
    },
    {
      "mesh": 2,
      "name": "Object_4"
    },
    {
      "mesh": 3,
      "name": "Object_5"
    },
    {
      "mesh": 4,
      "name": "Object_6"
    },
    {
      "mesh": 5,
      "name": "Object_7"
    }
  ],
  "samplers": [
    {
      "magFilter": 9729,
      "minFilter": 9987,
      "wrapS": 10497,
      "wrapT": 10497
    }
  ],
  "scene": 0,
  "scenes": [
    {
      "name": "Sketchfab_Scene",
      "nodes": [
        0
      ]
    }
  ],
  "textures": [
    {
      "sampler": 0,
      "source": 0
    }
  ]
}
