{
  "accessors": [
    {
      "bufferView": 2,
      "componentType": 5126,
      "count": 41943,
      "max": [
        102.31297302246094,
        102.31298065185547,
        56.46420669555664
      ],
      "min": [
        -102.31298065185547,
        -102.31298065185547,
        0.0
      ],
      "type": "VEC3"
    },
    {
      "bufferView": 2,
      "byteOffset": 503316,
      "componentType": 5126,
      "count": 41943,
      "max": [
        0.9797132611274719,
        0.9676249027252197,
        1.0
      ],
      "min": [
        -0.9723477959632874,
        -0.9765466451644897,
        -0.31581565737724304
      ],
      "type": "VEC3"
    },
    {
      "bufferView": 3,
      "componentType": 5126,
      "count": 41943,
      "max": [
        1.0,
        0.895318865776062,
        0.973658561706543,
        1.0
      ],
      "min": [
        -0.6925762891769409,
        -0.9093937873840332,
        -0.9772747159004211,
        -1.0
      ],
      "type": "VEC4"
    },
    {
      "bufferView": 1,
      "componentType": 5126,
      "count": 41943,
      "max": [
        0.9881775379180908,
        0.9882818460464478
      ],
      "min": [
        0.011718139052391052,
        0.011718139052391052
      ],
      "type": "VEC2"
    },
    {
      "bufferView": 0,
      "componentType": 5125,
      "count": 251193,
      "type": "SCALAR"
    }
  ],
  "asset": {
    "extras": {
      "author": "AbsoluteWitchCreations (https://sketchfab.com/absolutewitch)",
      "license": "CC-BY-4.0 (http://creativecommons.org/licenses/by/4.0/)",
      "source": "https://sketchfab.com/3d-models/snow-mountain-e42d1a231cf54ff3a01dc691c050762c",
      "title": "Snow Mountain"
    },
    "generator": "Sketchfab-13.58.0",
    "version": "2.0"
  },
  "bufferViews": [
    {
      "buffer": 0,
      "byteLength": 1004772,
      "name": "floatBufferViews",
      "target": 34963
    },
    {
      "buffer": 0,
      "byteLength": 335544,
      "byteOffset": 1004772,
      "byteStride": 8,
      "name": "floatBufferViews",
      "target": 34962
    },
    {
      "buffer": 0,
      "byteLength": 1006632,
      "byteOffset": 1340316,
      "byteStride": 12,
      "name": "floatBufferViews",
      "target": 34962
    },
    {
      "buffer": 0,
      "byteLength": 671088,
      "byteOffset": 2346948,
      "byteStride": 16,
      "name": "floatBufferViews",
      "target": 34962
    }
  ],
  "buffers": [
    {
      "byteLength": 3018036,
      "uri": "scene.bin"
    }
  ],
  "images": [
    {
      "uri": "textures/AncientMountain_baseColor.png"
    },
    {
      "uri": "textures/AncientMountain_metallicRoughness.png"
    },
    {
      "uri": "textures/AncientMountain_normal.jpeg"
    }
  ],
  "materials": [
    {
      "doubleSided": true,
      "name": "AncientMountain",
      "normalTexture": {
        "index": 2
      },
      "occlusionTexture": {
        "index": 1
      },
      "pbrMetallicRoughness": {
        "baseColorTexture": {
          "index": 0
        },
        "metallicFactor": 0.0,
        "metallicRoughnessTexture": {
          "index": 1
        }
      }
    }
  ],
  "meshes": [
    {
      "name": "Mountain_LP__AncientMountain_0",
      "primitives": [
        {
          "attributes": {
            "NORMAL": 1,
            "POSITION": 0,
            "TANGENT": 2,
            "TEXCOORD_0": 3
          },
          "indices": 4,
          "material": 0,
          "mode": 4
        }
      ]
    }
  ],
  "nodes": [
    {
      "children": [
        1
      ],
      "matrix": [
        1.0,
        0.0,
        0.0,
        0.0,
        0.0,
        2.220446049250313e-16,
        -1.0,
        0.0,
        0.0,
        1.0,
        2.220446049250313e-16,
        0.0,
        0.0,
        0.0,
        0.0,
        1.0
      ],
      "name": "Sketchfab_model"
    },
    {
      "children": [
        2
      ],
      "matrix": [
        0.009999999776482582,
        0.0,
        0.0,
        0.0,
        0.0,
        0.0,
        0.009999999776482582,
        0.0,
        0.0,
        -0.009999999776482582,
        0.0,
        0.0,
        0.0,
        0.0,
        0.0,
        1.0
      ],
      "name": "0e77be6d7e5945d0beef201c239667ce.fbx"
    },
    {
      "children": [
        3
      ],
      "name": "RootNode"
    },
    {
      "children": [
        4
      ],
      "matrix": [
        100.0,
        0.0,
        0.0,
        0.0,
        0.0,
        -1.629206793918314e-05,
        -99.99999999999868,
        0.0,
        0.0,
        99.99999999999868,
        -1.629206793918314e-05,
        0.0,
        0.0,
        0.0,
        0.0,
        1.0
      ],
      "name": "Mountain_LP_"
    },
    {
      "mesh": 0,
      "name": "Mountain_LP__AncientMountain_0"
    }
  ],
  "samplers": [
    {
      "magFilter": 9729,
      "minFilter": 9987,
      "wrapS": 10497,
      "wrapT": 10497
    }
  ],
  "scene": 0,
  "scenes": [
    {
      "name": "Sketchfab_Scene",
      "nodes": [
        0
      ]
    }
  ],
  "textures": [
    {
      "sampler": 0,
      "source": 0
    },
    {
      "sampler": 0,
      "source": 1
    },
    {
      "sampler": 0,
      "source": 2
    }
  ]
}
