{
  "accessors": [
    {
      "bufferView": 1,
      "componentType": 5126,
      "count": 65532,
      "max": [
        1.8310929536819458,
        3.5271496772766113,
        1.1649351119995117
      ],
      "min": [
        -1.764188289642334,
        -0.5299198031425476,
        -2.830925703048706
      ],
      "type": "VEC3"
    },
    {
      "bufferView": 1,
      "byteOffset": 786384,
      "componentType": 5126,
      "count": 65532,
      "max": [
        0.9999664425849915,
        0.9999954700469971,
        0.9999512434005737
      ],
      "min": [
        -0.9999822974205017,
        -0.9998907446861267,
        -0.9999869465827942
      ],
      "type": "VEC3"
    },
    {
      "bufferView": 2,
      "componentType": 5126,
      "count": 65532,
      "max": [
        1.0,
        1.0,
        1.0,
        1.0
      ],
      "min": [
        0.9764705896377563,
        0.9764705896377563,
        0.9764705896377563,
        1.0
      ],
      "type": "VEC4"
    },
    {
      "bufferView": 0,
      "componentType": 5125,
      "count": 330483,
      "type": "SCALAR"
    },
    {
      "bufferView": 1,
      "byteOffset": 1572768,
      "componentType": 5126,
      "count": 65533,
      "max": [
        1.83247709274292,
        3.5271496772766113,
        1.1649351119995117
      ],
      "min": [
        -1.8326807022094727,
        -0.5295429825782776,
        -2.830925703048706
      ],
      "type": "VEC3"
    },
    {
      "bufferView": 1,
      "byteOffset": 2359164,
      "componentType": 5126,
      "count": 65533,
      "max": [
        0.9999572038650513,
        0.9999954700469971,
        0.9999812841415405
      ],
      "min": [
        -0.9998759031295776,
        -0.9999385476112366,
        -0.9999730587005615
      ],
      "type": "VEC3"
    },
    {
      "bufferView": 2,
      "byteOffset": 1048512,
      "componentType": 5126,
      "count": 65533,
      "max": [
        1.0,
        1.0,
        1.0,
        1.0
      ],
      "min": [
        0.9764705896377563,
        0.9764705896377563,
        0.9764705896377563,
        1.0
      ],
      "type": "VEC4"
    },
    {
      "bufferView": 0,
      "byteOffset": 1321932,
      "componentType": 5125,
      "count": 261591,
      "type": "SCALAR"
    },
    {
      "bufferView": 1,
      "byteOffset": 3145560,
      "componentType": 5126,
      "count": 4499,
      "max": [
        1.7665296792984009,
        3.514885663986206,
        1.128192663192749
      ],
      "min": [
        -1.7662394046783447,
        -0.4719408452510834,
        -2.817807912826538
      ],
      "type": "VEC3"
    },
    {
      "bufferView": 1,
      "byteOffset": 3199548,
      "componentType": 5126,
      "count": 4499,
      "max": [
        0.9989435076713562,
        0.999915599822998,
        0.9990128874778748
      ],
      "min": [
        -0.9999822974205017,
        -0.998694121837616,
        -0.9990602731704712
      ],
      "type": "VEC3"
    },
    {
      "bufferView": 2,
      "byteOffset": 2097040,
      "componentType": 5126,
      "count": 4499,
      "max": [
        1.0,
        1.0,
        1.0,
        1.0
      ],
      "min": [
        0.9803921580314636,
        0.9803921580314636,
        0.9803921580314636,
        1.0
      ],
      "type": "VEC4"
    },
    {
      "bufferView": 0,
      "byteOffset": 2368296,
      "componentType": 5125,
      "count": 4830,
      "type": "SCALAR"
    }
  ],
  "asset": {
    "extras": {
      "author": "Chaitanya Krishnan (https://sketchfab.com/chaitanyak)",
      "license": "CC-BY-4.0 (http://creativecommons.org/licenses/by/4.0/)",
      "source": "https://sketchfab.com/3d-models/sculpt-january-2018-jan-11-marine-53f6db7938454e11833559b70ca449aa",
      "title": "Sculpt January 2018 Jan 11 - Marine"
    },
    "generator": "Sketchfab-12.68.0",
    "version": "2.0"
  },
  "bufferViews": [
    {
      "buffer": 0,
      "byteLength": 2387616,
      "name": "floatBufferViews",
      "target": 34963
    },
    {
      "buffer": 0,
      "byteLength": 3253536,
      "byteOffset": 2387616,
      "byteStride": 12,
      "name": "floatBufferViews",
      "target": 34962
    },
    {
      "buffer": 0,
      "byteLength": 2169024,
      "byteOffset": 5641152,
      "byteStride": 16,
      "name": "floatBufferViews",
      "target": 34962
    }
  ],
  "buffers": [
    {
      "byteLength": 7810176,
      "uri": "scene.bin"
    }
  ],
  "materials": [
    {
      "doubleSided": true,
      "name": "material_0",
      "pbrMetallicRoughness": {
        "metallicFactor": 0.0,
        "roughnessFactor": 0.6
      }
    }
  ],
  "meshes": [
    {
      "name": "Object_0",
      "primitives": [
        {
          "attributes": {
            "COLOR_0": 2,
            "NORMAL": 1,
            "POSITION": 0
          },
          "indices": 3,
          "material": 0,
          "mode": 4
        }
      ]
    },
    {
      "name": "Object_1",
      "primitives": [
        {
          "attributes": {
            "COLOR_0": 6,
            "NORMAL": 5,
            "POSITION": 4
          },
          "indices": 7,
          "material": 0,
          "mode": 4
        }
      ]
    },
    {
      "name": "Object_2",
      "primitives": [
        {
          "attributes": {
            "COLOR_0": 10,
            "NORMAL": 9,
            "POSITION": 8
          },
          "indices": 11,
          "material": 0,
          "mode": 4
        }
      ]
    }
  ],
  "nodes": [
    {
      "children": [
        1
      ],
      "matrix": [
        1.0,
        0.0,
        0.0,
        0.0,
        0.0,
        2.220446049250313e-16,
        -1.0,
        0.0,
        0.0,
        1.0,
        2.220446049250313e-16,
        0.0,
        0.0,
        0.0,
        0.0,
        1.0
      ],
      "name": "Sketchfab_model"
    },
    {
      "children": [
        2,
        3,
        4
      ],
      "name": "day 011oo1 poly optim.OBJ.cleaner.materialmerger.gles"
    },
    {
      "mesh": 0,
      "name": "Object_2"
    },
    {
      "mesh": 1,
      "name": "Object_3"
    },
    {
      "mesh": 2,
      "name": "Object_4"
    }
  ],
  "scene": 0,
  "scenes": [
    {
      "name": "Sketchfab_Scene",
      "nodes": [
        0
      ]
    }
  ]
}
