{
  "accessors": [
    {
      "bufferView": 2,
      "componentType": 5126,
      "count": 4,
      "max": [
        0.06872399896383286,
        0.05457400158047676,
        1.5263489484786987
      ],
      "min": [
        -0.06868799775838852,
        0.054545000195503235,
        1.526291012763977
      ],
      "type": "VEC3"
    },
    {
      "bufferView": 1,
      "componentType": 5126,
      "count": 4,
      "max": [
        0.0,
        0.0
      ],
      "min": [
        0.0,
        0.0
      ],
      "type": "VEC2"
    },
    {
      "bufferView": 0,
      "componentType": 5125,
      "count": 4,
      "type": "SCALAR"
    },
    {
      "bufferView": 2,
      "byteOffset": 48,
      "componentType": 5126,
      "count": 6511,
      "max": [
        0.2125989943742752,
        0.17473800480365753,
        1.5683059692382813
      ],
      "min": [
        -0.2125830054283142,
        -0.12203899770975113,
        1.0178589820861816
      ],
      "type": "VEC3"
    },
    {
      "bufferView": 2,
      "byteOffset": 78180,
      "componentType": 5126,
      "count": 6511,
      "max": [
        0.9999818801879883,
        0.9998894929885864,
        0.9998202919960022
      ],
      "min": [
        -0.9999128580093384,
        -0.9997027516365051,
        -0.9950711727142334
      ],
      "type": "VEC3"
    },
    {
      "bufferView": 3,
      "componentType": 5126,
      "count": 6511,
      "max": [
        0.9987483620643616,
        0.99759840965271,
        0.9999505281448364,
        1.0
      ],
      "min": [
        -0.9984210729598999,
        -0.9982595443725586,
        -0.9990814328193665,
        -1.0
      ],
      "type": "VEC4"
    },
    {
      "bufferView": 1,
      "byteOffset": 32,
      "componentType": 5126,
      "count": 6511,
      "max": [
        0.9985150098800659,
        0.978069007396698
      ],
      "min": [
        0.0014819999923929572,
        0.0014779999619349837
      ],
      "type": "VEC2"
    },
    {
      "bufferView": 0,
      "byteOffset": 16,
      "componentType": 5125,
      "count": 30648,
      "type": "SCALAR"
    },
    {
      "bufferView": 2,
      "byteOffset": 156312,
      "componentType": 5126,
      "count": 9318,
      "max": [
        0.3967669904232025,
        0.22264300286769867,
        1.3607079982757568
      ],
      "min": [
        -0.28724101185798645,
        -0.1549769937992096,
        -0.00532200001180172
      ],
      "type": "VEC3"
    },
    {
      "bufferView": 2,
      "byteOffset": 268128,
      "componentType": 5126,
      "count": 9318,
      "max": [
        0.9999865293502808,
        0.9999784231185913,
        0.9996747374534607
      ],
      "min": [
        -0.9999136924743652,
        -0.9999939203262329,
        -0.9999998807907104
      ],
      "type": "VEC3"
    },
    {
      "bufferView": 3,
      "byteOffset": 104176,
      "componentType": 5126,
      "count": 9318,
      "max": [
        1.0,
        0.9999712109565735,
        0.9999549984931946,
        1.0
      ],
      "min": [
        -1.0,
        -0.9999768733978271,
        -0.9999988079071045,
        -1.0
      ],
      "type": "VEC4"
    },
    {
      "bufferView": 1,
      "byteOffset": 52120,
      "componentType": 5126,
      "count": 9318,
      "max": [
        0.998494029045105,
        0.9983389973640442
      ],
      "min": [
        0.001610000035725534,
        0.0014929999597370625
      ],
      "type": "VEC2"
    },
    {
      "bufferView": 0,
      "byteOffset": 122608,
      "componentType": 5125,
      "count": 49806,
      "type": "SCALAR"
    },
    {
      "bufferView": 2,
      "byteOffset": 379944,
      "componentType": 5126,
      "count": 5279,
      "max": [
        0.08550100028514862,
        0.10665500164031982,
        1.5578839778900146
      ],
      "min": [
        -0.08546999841928482,
        -0.10222700238227844,
        1.3228000402450562
      ],
      "type": "VEC3"
    },
    {
      "bufferView": 2,
      "byteOffset": 443292,
      "componentType": 5126,
      "count": 5279,
      "max": [
        0.999612033367157,
        1.0,
        1.0
      ],
      "min": [
        -0.999612033367157,
        -0.9999181032180786,
        -0.9999327659606934
      ],
      "type": "VEC3"
    },
    {
      "bufferView": 3,
      "byteOffset": 253264,
      "componentType": 5126,
      "count": 5279,
      "max": [
        1.0,
        0.9999876022338867,
        0.9989804029464722,
        1.0
      ],
      "min": [
        -0.9999986290931702,
        -0.9977177381515503,
        -0.9996762275695801,
        -1.0
      ],
      "type": "VEC4"
    },
    {
      "bufferView": 1,
      "byteOffset": 126664,
      "componentType": 5126,
      "count": 5279,
      "max": [
        0.998740017414093,
        0.9914050102233887
      ],
      "min": [
        0.0012629999546334147,
        0.001256000017747283
      ],
      "type": "VEC2"
    },
    {
      "bufferView": 0,
      "byteOffset": 321832,
      "componentType": 5125,
      "count": 28983,
      "type": "SCALAR"
    },
    {
      "bufferView": 2,
      "byteOffset": 506640,
      "componentType": 5126,
      "count": 4755,
      "max": [
        0.026998000219464302,
        -0.0219579990953207,
        1.3919450044631958
      ],
      "min": [
        -0.02697099931538105,
        -0.07965800166130066,
        1.358510971069336
      ],
      "type": "VEC3"
    },
    {
      "bufferView": 2,
      "byteOffset": 563700,
      "componentType": 5126,
      "count": 4755,
      "max": [
        0.9998863935470581,
        0.9992733001708984,
        0.9999122619628906
      ],
      "min": [
        -0.999886155128479,
        -0.9999687671661377,
        -0.999997615814209
      ],
      "type": "VEC3"
    },
    {
      "bufferView": 3,
      "byteOffset": 337728,
      "componentType": 5126,
      "count": 4755,
      "max": [
        1.0,
        0.9999630451202393,
        0.9999980330467224,
        1.0
      ],
      "min": [
        -1.0,
        -0.9999595880508423,
        -0.9999709725379944,
        -1.0
      ],
      "type": "VEC4"
    },
    {
      "bufferView": 1,
      "byteOffset": 168896,
      "componentType": 5126,
      "count": 4755,
      "max": [
        0.9987090229988098,
        0.2989540100097656
      ],
      "min": [
        0.0,
        0.0
      ],
      "type": "VEC2"
    },
    {
      "bufferView": 0,
      "byteOffset": 437764,
      "componentType": 5125,
      "count": 23646,
      "type": "SCALAR"
    }
  ],
  "asset": {
    "extras": {
      "author": "CheRa (https://sketchfab.com/chera3d)",
      "license": "CC-BY-4.0 (http://creativecommons.org/licenses/by/4.0/)",
      "source": "https://sketchfab.com/3d-models/asuka-langley-436397c520b84c44bd0cff2269ab7c25",
      "title": "Asuka Langley"
    },
    "generator": "Sketchfab-14.32.0",
    "version": "2.0"
  },
  "bufferViews": [
    {
      "buffer": 0,
      "byteLength": 532348,
      "name": "floatBufferViews",
      "target": 34963
    },
    {
      "buffer": 0,
      "byteLength": 206936,
      "byteOffset": 532348,
      "byteStride": 8,
      "name": "floatBufferViews",
      "target": 34962
    },
    {
      "buffer": 0,
      "byteLength": 620760,
      "byteOffset": 739284,
      "byteStride": 12,
      "name": "floatBufferViews",
      "target": 34962
    },
    {
      "buffer": 0,
      "byteLength": 413808,
      "byteOffset": 1360044,
      "byteStride": 16,
      "name": "floatBufferViews",
      "target": 34962
    }
  ],
  "buffers": [
    {
      "byteLength": 1773852,
      "uri": "ltf.bin"
    }
  ],
  "images": [
    {
      "uri": "textures/Body.001_baseColor.png"
    },
    {
      "uri": "textures/Body.001_metallicRoughness.png"
    },
    {
      "uri": "textures/Body.001_normal.png"
    },
    {
      "uri": "textures/Face.001_baseColor.png"
    },
    {
      "uri": "textures/Face.001_metallicRoughness.png"
    },
    {
      "uri": "textures/Face.001_normal.png"
    },
    {
      "uri": "textures/Hair.001_baseColor.png"
    },
    {
      "uri": "textures/Hair.001_metallicRoughness.png"
    },
    {
      "uri": "textures/Hair.001_normal.png"
    }
  ],
  "materials": [
    {
      "doubleSided": true,
      "name": "Body.001",
      "normalTexture": {
        "index": 2
      },
      "occlusionTexture": {
        "index": 1
      },
      "pbrMetallicRoughness": {
        "baseColorTexture": {
          "index": 0
        },
        "metallicRoughnessTexture": {
          "index": 1
        }
      }
    },
    {
      "doubleSided": true,
      "name": "Face.001",
      "normalTexture": {
        "index": 5
      },
      "occlusionTexture": {
        "index": 4
      },
      "pbrMetallicRoughness": {
        "baseColorTexture": {
          "index": 3
        },
        "metallicFactor": 0.0,
        "metallicRoughnessTexture": {
          "index": 4
        }
      }
    },
    {
      "doubleSided": true,
      "name": "Hair.001",
      "normalTexture": {
        "index": 8
      },
      "occlusionTexture": {
        "index": 7
      },
      "pbrMetallicRoughness": {
        "baseColorTexture": {
          "index": 6
        },
        "metallicRoughnessTexture": {
          "index": 7
        }
      }
    }
  ],
  "meshes": [
    {
      "name": "Object_0",
      "primitives": [
        {
          "attributes": {
            "POSITION": 0,
            "TEXCOORD_0": 1
          },
          "indices": 2,
          "material": 2,
          "mode": 1
        }
      ]
    },
    {
      "name": "Object_1",
      "primitives": [
        {
          "attributes": {
            "NORMAL": 4,
            "POSITION": 3,
            "TANGENT": 5,
            "TEXCOORD_0": 6
          },
          "indices": 7,
          "material": 2,
          "mode": 4
        }
      ]
    },
    {
      "name": "Object_2",
      "primitives": [
        {
          "attributes": {
            "NORMAL": 9,
            "POSITION": 8,
            "TANGENT": 10,
            "TEXCOORD_0": 11
          },
          "indices": 12,
          "material": 0,
          "mode": 4
        }
      ]
    },
    {
      "name": "Object_3",
      "primitives": [
        {
          "attributes": {
            "NORMAL": 14,
            "POSITION": 13,
            "TANGENT": 15,
            "TEXCOORD_0": 16
          },
          "indices": 17,
          "material": 1,
          "mode": 4
        }
      ]
    },
    {
      "name": "Object_4",
      "primitives": [
        {
          "attributes": {
            "NORMAL": 19,
            "POSITION": 18,
            "TANGENT": 20,
            "TEXCOORD_0": 21
          },
          "indices": 22,
          "material": 1,
          "mode": 4
        }
      ]
    }
  ],
  "nodes": [
    {
      "children": [
        1
      ],
      "matrix": [
        1.0,
        0.0,
        0.0,
        0.0,
        0.0,
        2.220446049250313e-16,
        -1.0,
        0.0,
        0.0,
        1.0,
        2.220446049250313e-16,
        0.0,
        0.0,
        0.0,
        0.0,
        1.0
      ],
      "name": "Sketchfab_model"
    },
    {
      "children": [
        2,
        3,
        4,
        5,
        6
      ],
      "name": "Asuka_Pose_1.obj.cleaner.materialmerger.gles"
    },
    {
      "mesh": 0,
      "name": "Object_2"
    },
    {
      "mesh": 1,
      "name": "Object_3"
    },
    {
      "mesh": 2,
      "name": "Object_4"
    },
    {
      "mesh": 3,
      "name": "Object_5"
    },
    {
      "mesh": 4,
      "name": "Object_6"
    }
  ],
  "samplers": [
    {
      "magFilter": 9729,
      "minFilter": 9987,
      "wrapS": 10497,
      "wrapT": 10497
    }
  ],
  "scene": 0,
  "scenes": [
    {
      "name": "Sketchfab_Scene",
      "nodes": [
        0
      ]
    }
  ],
  "textures": [
    {
      "sampler": 0,
      "source": 0
    },
    {
      "sampler": 0,
      "source": 1
    },
    {
      "sampler": 0,
      "source": 2
    },
    {
      "sampler": 0,
      "source": 3
    },
    {
      "sampler": 0,
      "source": 4
    },
    {
      "sampler": 0,
      "source": 5
    },
    {
      "sampler": 0,
      "source": 6
    },
    {
      "sampler": 0,
      "source": 7
    },
    {
      "sampler": 0,
      "source": 8
    }
  ]
}
