{
  "accessors": [
    {
      "bufferView": 1,
      "componentType": 5126,
      "count": 65532,
      "max": [
        1.5823209285736084,
        -1.8965342044830322,
        0.8673359155654907
      ],
      "min": [
        -0.8794560432434082,
        -4.642522811889648,
        -1.4961566925048828
      ],
      "type": "VEC3"
    },
    {
      "bufferView": 1,
      "byteOffset": 786384,
      "componentType": 5126,
      "count": 65532,
      "max": [
        0.9999938607215881,
        1.0,
        0.9999879598617554
      ],
      "min": [
        -0.9999968409538269,
        -1.0,
        -0.9999992251396179
      ],
      "type": "VEC3"
    },
    {
      "bufferView": 2,
      "componentType": 5126,
      "count": 65532,
      "max": [
        0.9882352948188782,
        0.9960784316062927,
        0.9882352948188782,
        1.0
      ],
      "min": [
        0.054901961237192154,
        0.003921568859368563,
        0.0,
        1.0
      ],
      "type": "VEC4"
    },
    {
      "bufferView": 0,
      "componentType": 5125,
      "count": 327657,
      "type": "SCALAR"
    },
    {
      "bufferView": 1,
      "byteOffset": 1572768,
      "componentType": 5126,
      "count": 65532,
      "max": [
        1.4886893033981323,
        -1.4725534915924072,
        1.0719711780548096
      ],
      "min": [
        -0.8879203796386719,
        -4.651348114013672,
        -1.4543561935424805
      ],
      "type": "VEC3"
    },
    {
      "bufferView": 1,
      "byteOffset": 2359152,
      "componentType": 5126,
      "count": 65532,
      "max": [
        1.0,
        1.0,
        1.0
      ],
      "min": [
        -1.0,
        -1.0,
        -1.0
      ],
      "type": "VEC3"
    },
    {
      "bufferView": 2,
      "byteOffset": 1048512,
      "componentType": 5126,
      "count": 65532,
      "max": [
        0.9411764740943909,
        0.95686274766922,
        0.9450980424880981,
        1.0
      ],
      "min": [
        0.10196078568696976,
        0.007843137718737125,
        0.0,
        1.0
      ],
      "type": "VEC4"
    },
    {
      "bufferView": 0,
      "byteOffset": 1310628,
      "componentType": 5125,
      "count": 299181,
      "type": "SCALAR"
    },
    {
      "bufferView": 1,
      "byteOffset": 3145536,
      "componentType": 5126,
      "count": 65532,
      "max": [
        1.5776432752609253,
        -1.4742472171783447,
        1.0696817636489868
      ],
      "min": [
        -0.8741623759269714,
        -4.637662410736084,
        -1.4326987266540527
      ],
      "type": "VEC3"
    },
    {
      "bufferView": 1,
      "byteOffset": 3931920,
      "componentType": 5126,
      "count": 65532,
      "max": [
        1.0,
        1.0,
        1.0
      ],
      "min": [
        -1.0,
        -1.0,
        -1.0
      ],
      "type": "VEC3"
    },
    {
      "bufferView": 2,
      "byteOffset": 2097024,
      "componentType": 5126,
      "count": 65532,
      "max": [
        0.7568627595901489,
        0.7411764860153198,
        0.7372549176216125,
        1.0
      ],
      "min": [
        0.054901961237192154,
        0.003921568859368563,
        0.0,
        1.0
      ],
      "type": "VEC4"
    },
    {
      "bufferView": 0,
      "byteOffset": 2507352,
      "componentType": 5125,
      "count": 287904,
      "type": "SCALAR"
    },
    {
      "bufferView": 1,
      "byteOffset": 4718304,
      "componentType": 5126,
      "count": 508,
      "max": [
        1.350358486175537,
        -2.0114831924438477,
        1.0353641510009766
      ],
      "min": [
        -0.8478545546531677,
        -4.521273612976074,
        -1.1813987493515015
      ],
      "type": "VEC3"
    },
    {
      "bufferView": 1,
      "byteOffset": 4724400,
      "componentType": 5126,
      "count": 508,
      "max": [
        0.9856499433517456,
        0.9993851184844971,
        0.9988101124763489
      ],
      "min": [
        -0.9995730519294739,
        -1.0,
        -0.9992357492446899
      ],
      "type": "VEC3"
    },
    {
      "bufferView": 2,
      "byteOffset": 3145536,
      "componentType": 5126,
      "count": 508,
      "max": [
        0.729411780834198,
        0.6745098233222961,
        0.6549019813537598,
        1.0
      ],
      "min": [
        0.13725490868091583,
        0.07450980693101883,
        0.06666667014360428,
        1.0
      ],
      "type": "VEC4"
    },
    {
      "bufferView": 0,
      "byteOffset": 3658968,
      "componentType": 5125,
      "count": 780,
      "type": "SCALAR"
    }
  ],
  "asset": {
    "extras": {
      "author": "MWintersberger (https://sketchfab.com/mwintersberger)",
      "license": "CC-BY-4.0 (http://creativecommons.org/licenses/by/4.0/)",
      "source": "https://sketchfab.com/3d-models/the-nature-of-nothing-christ-in-distress-vi-d981e423477348a5ac267bd7bba7d1db",
      "title": "The nature of “nothing” - Christ in Distress VI"
    },
    "generator": "Sketchfab-15.29.0",
    "version": "2.0"
  },
  "bufferViews": [
    {
      "buffer": 0,
      "byteLength": 3662088,
      "name": "floatBufferViews",
      "target": 34963
    },
    {
      "buffer": 0,
      "byteLength": 4730496,
      "byteOffset": 3662088,
      "byteStride": 12,
      "name": "floatBufferViews",
      "target": 34962
    },
    {
      "buffer": 0,
      "byteLength": 3153664,
      "byteOffset": 8392584,
      "byteStride": 16,
      "name": "floatBufferViews",
      "target": 34962
    }
  ],
  "buffers": [
    {
      "byteLength": 11546248,
      "uri": "scene.bin"
    }
  ],
  "extensionsUsed": [
    "KHR_materials_specular"
  ],
  "materials": [
    {
      "doubleSided": true,
      "extensions": {
        "KHR_materials_specular": {
          "specularColorFactor": [
            1.0,
            1.0,
            1.0
          ],
          "specularFactor": 1.0
        }
      },
      "name": "Scene_-_Root",
      "pbrMetallicRoughness": {
        "baseColorFactor": [
          1.0,
          0.0,
          0.0,
          1.0
        ],
        "metallicFactor": 0.0,
        "roughnessFactor": 0.0
      }
    }
  ],
  "meshes": [
    {
      "name": "Object_0",
      "primitives": [
        {
          "attributes": {
            "COLOR_0": 2,
            "NORMAL": 1,
            "POSITION": 0
          },
          "indices": 3,
          "material": 0,
          "mode": 4
        }
      ]
    },
    {
      "name": "Object_1",
      "primitives": [
        {
          "attributes": {
            "COLOR_0": 6,
            "NORMAL": 5,
            "POSITION": 4
          },
          "indices": 7,
          "material": 0,
          "mode": 4
        }
      ]
    },
    {
      "name": "Object_2",
      "primitives": [
        {
          "attributes": {
            "COLOR_0": 10,
            "NORMAL": 9,
            "POSITION": 8
          },
          "indices": 11,
          "material": 0,
          "mode": 4
        }
      ]
    },
    {
      "name": "Object_3",
      "primitives": [
        {
          "attributes": {
            "COLOR_0": 14,
            "NORMAL": 13,
            "POSITION": 12
          },
          "indices": 15,
          "material": 0,
          "mode": 4
        }
      ]
    }
  ],
  "nodes": [
    {
      "children": [
        1
      ],
      "matrix": [
        0.9005037546157837,
        0.006320720538497067,
        -0.43480226397514343,
        0.0,
        2.220446049250313e-16,
        0.999894380569458,
        0.01453546527773164,
        0.0,
        0.43484818935394287,
        -0.013089241459965905,
        0.9004086256027222,
        0.0,
        0.0,
        0.0,
        0.0,
        1.0
      ],
      "name": "Sketchfab_model"
    },
    {
      "children": [
        2,
        3,
        4,
        5
      ],
      "name": "Geode"
    },
    {
      "mesh": 0,
      "name": "Object_2"
    },
    {
      "mesh": 1,
      "name": "Object_3"
    },
    {
      "mesh": 2,
      "name": "Object_4"
    },
    {
      "mesh": 3,
      "name": "Object_5"
    }
  ],
  "scene": 0,
  "scenes": [
    {
      "name": "Sketchfab_Scene",
      "nodes": [
        0
      ]
    }
  ]
}
