{
  "accessors": [
    {
      "bufferView": 2,
      "componentType": 5126,
      "count": 9253,
      "max": [
        2.6500000953674316,
        10.708173751831055,
        2.6500000953674316
      ],
      "min": [
        -2.6500000953674316,
        -0.10000002384185791,
        -2.6500000953674316
      ],
      "type": "VEC3"
    },
    {
      "bufferView": 2,
      "byteOffset": 111036,
      "componentType": 5126,
      "count": 9253,
      "max": [
        1.0,
        1.0,
        1.0
      ],
      "min": [
        -1.0,
        -1.0,
        -1.0
      ],
      "type": "VEC3"
    },
    {
      "bufferView": 3,
      "componentType": 5126,
      "count": 9253,
      "max": [
        1.0,
        1.0,
        1.0,
        1.0
      ],
      "min": [
        -1.0,
        -1.0,
        -1.0,
        1.0
      ],
      "type": "VEC4"
    },
    {
      "bufferView": 1,
      "componentType": 5126,
      "count": 9253,
      "max": [
        0.9913905262947083,
        0.9965230822563171
      ],
      "min": [
        0.0034768879413604736,
        0.003476858139038086
      ],
      "type": "VEC2"
    },
    {
      "bufferView": 1,
      "byteOffset": 74024,
      "componentType": 5126,
      "count": 9253,
      "max": [
        0.0,
        0.0
      ],
      "min": [
        0.0,
        0.0
      ],
      "type": "VEC2"
    },
    {
      "bufferView": 1,
      "byteOffset": 148048,
      "componentType": 5126,
      "count": 9253,
      "max": [
        0.9913905262947083,
        0.9965230822563171
      ],
      "min": [
        0.0034768879413604736,
        0.003476858139038086
      ],
      "type": "VEC2"
    },
    {
      "bufferView": 1,
      "byteOffset": 222072,
      "componentType": 5126,
      "count": 9253,
      "max": [
        0.9913905262947083,
        0.9965230822563171
      ],
      "min": [
        0.0034768879413604736,
        0.003476858139038086
      ],
      "type": "VEC2"
    },
    {
      "bufferView": 1,
      "byteOffset": 296096,
      "componentType": 5126,
      "count": 9253,
      "max": [
        0.9913905262947083,
        0.9965230822563171
      ],
      "min": [
        0.0034768879413604736,
        0.003476858139038086
      ],
      "type": "VEC2"
    },
    {
      "bufferView": 0,
      "componentType": 5125,
      "count": 29700,
      "type": "SCALAR"
    },
    {
      "bufferView": 2,
      "byteOffset": 222072,
      "componentType": 5126,
      "count": 536,
      "max": [
        1.3287075757980347,
        8.726811408996582,
        1.2873283624649048
      ],
      "min": [
        -1.3287079334259033,
        7.363989353179932,
        -1.3287075757980347
      ],
      "type": "VEC3"
    },
    {
      "bufferView": 2,
      "byteOffset": 228504,
      "componentType": 5126,
      "count": 536,
      "max": [
        1.0,
        1.0,
        1.0
      ],
      "min": [
        -1.0,
        -1.0,
        -1.0
      ],
      "type": "VEC3"
    },
    {
      "bufferView": 1,
      "byteOffset": 370120,
      "componentType": 5126,
      "count": 536,
      "max": [
        0.0,
        0.0
      ],
      "min": [
        0.0,
        0.0
      ],
      "type": "VEC2"
    },
    {
      "bufferView": 1,
      "byteOffset": 374408,
      "componentType": 5126,
      "count": 536,
      "max": [
        0.9384787082672119,
        1.0
      ],
      "min": [
        0.0,
        0.0
      ],
      "type": "VEC2"
    },
    {
      "bufferView": 0,
      "byteOffset": 118800,
      "componentType": 5125,
      "count": 1392,
      "type": "SCALAR"
    }
  ],
  "asset": {
    "extras": {
      "author": "MisterH (https://sketchfab.com/TGVMisterH)",
      "license": "CC-BY-4.0 (http://creativecommons.org/licenses/by/4.0/)",
      "source": "https://sketchfab.com/3d-models/low-poly-lighthouse-0378c7a62e5f446f80c6514bf47b76d4",
      "title": "Low Poly Lighthouse"
    },
    "generator": "Sketchfab-15.28.0",
    "version": "2.0"
  },
  "bufferViews": [
    {
      "buffer": 0,
      "byteLength": 124368,
      "name": "floatBufferViews",
      "target": 34963
    },
    {
      "buffer": 0,
      "byteLength": 378696,
      "byteOffset": 124368,
      "byteStride": 8,
      "name": "floatBufferViews",
      "target": 34962
    },
    {
      "buffer": 0,
      "byteLength": 234936,
      "byteOffset": 503064,
      "byteStride": 12,
      "name": "floatBufferViews",
      "target": 34962
    },
    {
      "buffer": 0,
      "byteLength": 148048,
      "byteOffset": 738000,
      "byteStride": 16,
      "name": "floatBufferViews",
      "target": 34962
    }
  ],
  "buffers": [
    {
      "byteLength": 886048,
      "uri": "scene.bin"
    }
  ],
  "images": [
    {
      "uri": "textures/LightHouse_1024_baseColor.png"
    },
    {
      "uri": "textures/LightHouse_1024_metallicRoughness.png"
    },
    {
      "uri": "textures/LightHouse_1024_normal.png"
    }
  ],
  "materials": [
    {
      "doubleSided": true,
      "name": "LightHouse_1024",
      "normalTexture": {
        "index": 2
      },
      "pbrMetallicRoughness": {
        "baseColorTexture": {
          "index": 0
        },
        "metallicRoughnessTexture": {
          "index": 1
        }
      }
    },
    {
      "alphaMode": "BLEND",
      "doubleSided": true,
      "name": "LightHouse_Glass",
      "pbrMetallicRoughness": {
        "baseColorFactor": [
          0.8484608070924397,
          0.8484608070924397,
          0.8484608070924397,
          0.26917773286235097
        ],
        "roughnessFactor": 0.0
      }
    }
  ],
  "meshes": [
    {
      "name": "Object_0",
      "primitives": [
        {
          "attributes": {
            "NORMAL": 1,
            "POSITION": 0,
            "TANGENT": 2,
            "TEXCOORD_0": 3,
            "TEXCOORD_1": 4,
            "TEXCOORD_2": 5,
            "TEXCOORD_3": 6,
            "TEXCOORD_4": 7
          },
          "indices": 8,
          "material": 0,
          "mode": 4
        }
      ]
    },
    {
      "name": "Object_1",
      "primitives": [
        {
          "attributes": {
            "NORMAL": 10,
            "POSITION": 9,
            "TEXCOORD_0": 11,
            "TEXCOORD_1": 12
          },
          "indices": 13,
          "material": 1,
          "mode": 4
        }
      ]
    }
  ],
  "nodes": [
    {
      "children": [
        1
      ],
      "matrix": [
        1.0,
        0.0,
        0.0,
        0.0,
        0.0,
        2.220446049250313e-16,
        -1.0,
        0.0,
        0.0,
        1.0,
        2.220446049250313e-16,
        0.0,
        0.0,
        0.0,
        0.0,
        1.0
      ],
      "name": "Sketchfab_model"
    },
    {
      "children": [
        2
      ],
      "name": "root"
    },
    {
      "children": [
        3
      ],
      "matrix": [
        1.0,
        0.0,
        0.0,
        0.0,
        0.0,
        2.220446049250313e-16,
        1.0,
        0.0,
        0.0,
        -1.0,
        2.220446049250313e-16,
        0.0,
        0.0,
        0.0,
        0.0,
        1.0
      ],
      "name": "GLTF_SceneRootNode"
    },
    {
      "children": [
        4,
        5
      ],
      "name": "LightHouse_Small_Red_0"
    },
    {
      "mesh": 0,
      "name": "Object_4"
    },
    {
      "mesh": 1,
      "name": "Object_5"
    }
  ],
  "samplers": [
    {
      "magFilter": 9729,
      "minFilter": 9987,
      "wrapS": 10497,
      "wrapT": 10497
    }
  ],
  "scene": 0,
  "scenes": [
    {
      "name": "Sketchfab_Scene",
      "nodes": [
        0
      ]
    }
  ],
  "textures": [
    {
      "sampler": 0,
      "source": 0
    },
    {
      "sampler": 0,
      "source": 1
    },
    {
      "sampler": 0,
      "source": 2
    }
  ]
}
