{
  "accessors": [
    {
      "bufferView": 2,
      "componentType": 5126,
      "count": 8828,
      "max": [
        14.212072372436523,
        15.967952728271484,
        0.11859399825334549
      ],
      "min": [
        -13.9002103805542,
        -20.611879348754883,
        0.1185859963297844
      ],
      "type": "VEC3"
    },
    {
      "bufferView": 2,
      "byteOffset": 105936,
      "componentType": 5126,
      "count": 8828,
      "max": [
        0.02230042964220047,
        0.05549824237823486,
        1.0
      ],
      "min": [
        -0.06090134382247925,
        -0.02749994397163391,
        -1.0
      ],
      "type": "VEC3"
    },
    {
      "bufferView": 1,
      "componentType": 5126,
      "count": 8828,
      "max": [
        0.8218550086021423,
        0.6938459873199463
      ],
      "min": [
        0.6765329837799072,
        0.5361319780349731
      ],
      "type": "VEC2"
    },
    {
      "bufferView": 0,
      "componentType": 5125,
      "count": 12612,
      "type": "SCALAR"
    },
    {
      "bufferView": 2,
      "byteOffset": 211872,
      "componentType": 5126,
      "count": 6612,
      "max": [
        14.212072372436523,
        15.967952728271484,
        2.4614689350128174
      ],
      "min": [
        -13.9002103805542,
        -20.611879348754883,
        0.1185859963297844
      ],
      "type": "VEC3"
    },
    {
      "bufferView": 2,
      "byteOffset": 291216,
      "componentType": 5126,
      "count": 6612,
      "max": [
        0.999983549118042,
        0.999941349029541,
        0.9980068206787109
      ],
      "min": [
        -0.999861478805542,
        -0.999987006187439,
        -0.8482298254966736
      ],
      "type": "VEC3"
    },
    {
      "bufferView": 1,
      "byteOffset": 70624,
      "componentType": 5126,
      "count": 6612,
      "max": [
        0.9994419813156128,
        0.9950339794158936
      ],
      "min": [
        0.005565000232309103,
        0.0028210000600665808
      ],
      "type": "VEC2"
    },
    {
      "bufferView": 0,
      "byteOffset": 50448,
      "componentType": 5125,
      "count": 19506,
      "type": "SCALAR"
    },
    {
      "bufferView": 2,
      "byteOffset": 370560,
      "componentType": 5126,
      "count": 65532,
      "max": [
        5.82506799697876,
        9.971076965332031,
        8.018110275268555
      ],
      "min": [
        -13.888647079467773,
        -7.192049026489258,
        0.5600870251655579
      ],
      "type": "VEC3"
    },
    {
      "bufferView": 2,
      "byteOffset": 1156944,
      "componentType": 5126,
      "count": 65532,
      "max": [
        0.9999665021896362,
        0.9999504089355469,
        0.9999972581863403
      ],
      "min": [
        -0.9999654293060303,
        -0.9999903440475464,
        -0.9994952082633972
      ],
      "type": "VEC3"
    },
    {
      "bufferView": 3,
      "componentType": 5126,
      "count": 65532,
      "max": [
        0.9999814033508301,
        0.9999756217002869,
        0.9998377561569214,
        1.0
      ],
      "min": [
        -0.999983012676239,
        -0.9999974370002747,
        -0.9999486804008484,
        -1.0
      ],
      "type": "VEC4"
    },
    {
      "bufferView": 1,
      "byteOffset": 123520,
      "componentType": 5126,
      "count": 65532,
      "max": [
        0.9999920129776001,
        0.9994630217552185
      ],
      "min": [
        9.000000136438757e-05,
        0.00010900000052060932
      ],
      "type": "VEC2"
    },
    {
      "bufferView": 0,
      "byteOffset": 128472,
      "componentType": 5125,
      "count": 349053,
      "type": "SCALAR"
    },
    {
      "bufferView": 2,
      "byteOffset": 1943328,
      "componentType": 5126,
      "count": 65532,
      "max": [
        7.599287986755371,
        15.959548950195313,
        7.898033142089844
      ],
      "min": [
        -8.807633399963379,
        -4.291304111480713,
        1.0672589540481567
      ],
      "type": "VEC3"
    },
    {
      "bufferView": 2,
      "byteOffset": 2729712,
      "componentType": 5126,
      "count": 65532,
      "max": [
        0.9999915361404419,
        0.9998501539230347,
        1.0
      ],
      "min": [
        -0.999972939491272,
        -0.9999405145645142,
        -0.9989269375801086
      ],
      "type": "VEC3"
    },
    {
      "bufferView": 3,
      "byteOffset": 1048512,
      "componentType": 5126,
      "count": 65532,
      "max": [
        0.9999808669090271,
        0.9999967813491821,
        0.9999560117721558,
        1.0
      ],
      "min": [
        -0.999983012676239,
        -0.9999866485595703,
        -0.9998619556427002,
        -1.0
      ],
      "type": "VEC4"
    },
    {
      "bufferView": 1,
      "byteOffset": 647776,
      "componentType": 5126,
      "count": 65532,
      "max": [
        0.999983012676239,
        0.9995020031929016
      ],
      "min": [
        9.000000318337698e-06,
        1.2999999853491317e-05
      ],
      "type": "VEC2"
    },
    {
      "bufferView": 0,
      "byteOffset": 1524684,
      "componentType": 5125,
      "count": 344883,
      "type": "SCALAR"
    },
    {
      "bufferView": 2,
      "byteOffset": 3516096,
      "componentType": 5126,
      "count": 65532,
      "max": [
        7.379817008972168,
        8.292024612426758,
        4.857789993286133
      ],
      "min": [
        -8.702009201049805,
        -20.11966323852539,
        0.48114699125289917
      ],
      "type": "VEC3"
    },
    {
      "bufferView": 2,
      "byteOffset": 4302480,
      "componentType": 5126,
      "count": 65532,
      "max": [
        0.9997259974479675,
        0.9994444847106934,
        0.999997615814209
      ],
      "min": [
        -0.9999856948852539,
        -0.9999344348907471,
        -0.9997482895851135
      ],
      "type": "VEC3"
    },
    {
      "bufferView": 3,
      "byteOffset": 2097024,
      "componentType": 5126,
      "count": 65532,
      "max": [
        0.9999969005584717,
        0.9999467134475708,
        0.9998884797096252,
        1.0
      ],
      "min": [
        -0.9999651312828064,
        -0.9999052286148071,
        -0.9999489784240723,
        -1.0
      ],
      "type": "VEC4"
    },
    {
      "bufferView": 1,
      "byteOffset": 1172032,
      "componentType": 5126,
      "count": 65532,
      "max": [
        0.9999970197677612,
        0.9994789958000183
      ],
      "min": [
        2.300000051036477e-05,
        9.999999974752427e-07
      ],
      "type": "VEC2"
    },
    {
      "bufferView": 0,
      "byteOffset": 2904216,
      "componentType": 5125,
      "count": 342063,
      "type": "SCALAR"
    },
    {
      "bufferView": 2,
      "byteOffset": 5088864,
      "componentType": 5126,
      "count": 65532,
      "max": [
        10.888692855834961,
        2.276371955871582,
        7.396667003631592
      ],
      "min": [
        -2.710900068283081,
        -19.53842544555664,
        0.8678979873657227
      ],
      "type": "VEC3"
    },
    {
      "bufferView": 2,
      "byteOffset": 5875248,
      "componentType": 5126,
      "count": 65532,
      "max": [
        0.9999614953994751,
        0.999467670917511,
        0.9999982118606567
      ],
      "min": [
        -0.9999830722808838,
        -0.9999005794525146,
        -0.9999865293502808
      ],
      "type": "VEC3"
    },
    {
      "bufferView": 3,
      "byteOffset": 3145536,
      "componentType": 5126,
      "count": 65532,
      "max": [
        0.9999997615814209,
        0.9999681711196899,
        0.9999245405197144,
        1.0
      ],
      "min": [
        -0.9999913573265076,
        -0.9998838901519775,
        -0.9999428391456604,
        -1.0
      ],
      "type": "VEC4"
    },
    {
      "bufferView": 1,
      "byteOffset": 1696288,
      "componentType": 5126,
      "count": 65532,
      "max": [
        0.9998900294303894,
        0.999455988407135
      ],
      "min": [
        7.400000322377309e-05,
        1.2999999853491317e-05
      ],
      "type": "VEC2"
    },
    {
      "bufferView": 0,
      "byteOffset": 4272468,
      "componentType": 5125,
      "count": 347496,
      "type": "SCALAR"
    },
    {
      "bufferView": 2,
      "byteOffset": 6661632,
      "componentType": 5126,
      "count": 65532,
      "max": [
        13.964076042175293,
        9.49858570098877,
        6.268999099731445
      ],
      "min": [
        1.2483220100402832,
        -9.107441902160645,
        0.8992570042610168
      ],
      "type": "VEC3"
    },
    {
      "bufferView": 2,
      "byteOffset": 7448016,
      "componentType": 5126,
      "count": 65532,
      "max": [
        0.9999573230743408,
        0.9998559951782227,
        0.9999995231628418
      ],
      "min": [
        -0.9999244213104248,
        -0.9993175268173218,
        -0.9991660118103027
      ],
      "type": "VEC3"
    },
    {
      "bufferView": 3,
      "byteOffset": 4194048,
      "componentType": 5126,
      "count": 65532,
      "max": [
        0.9999972581863403,
        0.9999980330467224,
        0.9999693036079407,
        1.0
      ],
      "min": [
        -0.9999845027923584,
        -0.999998927116394,
        -0.9999791979789734,
        -1.0
      ],
      "type": "VEC4"
    },
    {
      "bufferView": 1,
      "byteOffset": 2220544,
      "componentType": 5126,
      "count": 65532,
      "max": [
        0.9999949932098389,
        0.9992650151252747
      ],
      "min": [
        0.0029100000392645597,
        0.0005629999795928597
      ],
      "type": "VEC2"
    },
    {
      "bufferView": 0,
      "byteOffset": 5662452,
      "componentType": 5125,
      "count": 348795,
      "type": "SCALAR"
    },
    {
      "bufferView": 2,
      "byteOffset": 8234400,
      "componentType": 5126,
      "count": 65532,
      "max": [
        14.149270057678223,
        15.879077911376953,
        8.042952537536621
      ],
      "min": [
        -13.895031929016113,
        -14.749795913696289,
        0.5585089921951294
      ],
      "type": "VEC3"
    },
    {
      "bufferView": 2,
      "byteOffset": 9020784,
      "componentType": 5126,
      "count": 65532,
      "max": [
        0.9999861717224121,
        0.9999222755432129,
        0.9999984502792358
      ],
      "min": [
        -0.9999779462814331,
        -0.9999903440475464,
        -0.9999722242355347
      ],
      "type": "VEC3"
    },
    {
      "bufferView": 3,
      "byteOffset": 5242560,
      "componentType": 5126,
      "count": 65532,
      "max": [
        0.9999457001686096,
        0.9999895095825195,
        0.9999495148658752,
        1.0
      ],
      "min": [
        -0.9999949336051941,
        -0.9999558329582214,
        -0.9999218583106995,
        -1.0
      ],
      "type": "VEC4"
    },
    {
      "bufferView": 1,
      "byteOffset": 2744800,
      "componentType": 5126,
      "count": 65532,
      "max": [
        0.9999930262565613,
        0.9994840025901794
      ],
      "min": [
        4.5000000682193786e-05,
        7.000000096013537e-06
      ],
      "type": "VEC2"
    },
    {
      "bufferView": 0,
      "byteOffset": 7057632,
      "componentType": 5125,
      "count": 280419,
      "type": "SCALAR"
    },
    {
      "bufferView": 2,
      "byteOffset": 9807168,
      "componentType": 5126,
      "count": 65532,
      "max": [
        14.211516380310059,
        11.054150581359863,
        7.350251197814941
      ],
      "min": [
        -8.32624626159668,
        -20.583026885986328,
        0.48831799626350403
      ],
      "type": "VEC3"
    },
    {
      "bufferView": 2,
      "byteOffset": 10593552,
      "componentType": 5126,
      "count": 65532,
      "max": [
        0.9999754428863525,
        0.999985933303833,
        0.9999912977218628
      ],
      "min": [
        -0.9999769926071167,
        -0.9999452829360962,
        -0.9993212223052979
      ],
      "type": "VEC3"
    },
    {
      "bufferView": 3,
      "byteOffset": 6291072,
      "componentType": 5126,
      "count": 65532,
      "max": [
        0.9999989867210388,
        0.9999461770057678,
        0.999887228012085,
        1.0
      ],
      "min": [
        -0.9999989867210388,
        -0.9999991655349731,
        -0.9998732805252075,
        -1.0
      ],
      "type": "VEC4"
    },
    {
      "bufferView": 1,
      "byteOffset": 3269056,
      "componentType": 5126,
      "count": 65532,
      "max": [
        0.9999740123748779,
        0.9994410276412964
      ],
      "min": [
        9.000000318337698e-06,
        4.999999873689376e-06
      ],
      "type": "VEC2"
    },
    {
      "bufferView": 0,
      "byteOffset": 8179308,
      "componentType": 5125,
      "count": 262194,
      "type": "SCALAR"
    },
    {
      "bufferView": 2,
      "byteOffset": 11379936,
      "componentType": 5126,
      "count": 6766,
      "max": [
        3.943837881088257,
        15.599990844726563,
        4.315008163452148
      ],
      "min": [
        -8.548203468322754,
        5.641049861907959,
        1.0780149698257446
      ],
      "type": "VEC3"
    },
    {
      "bufferView": 2,
      "byteOffset": 11461128,
      "componentType": 5126,
      "count": 6766,
      "max": [
        0.9996330142021179,
        0.9997934699058533,
        0.9999622106552124
      ],
      "min": [
        -0.9992538094520569,
        -0.9996271729469299,
        -0.9972348213195801
      ],
      "type": "VEC3"
    },
    {
      "bufferView": 3,
      "byteOffset": 7339584,
      "componentType": 5126,
      "count": 6766,
      "max": [
        0.9968724250793457,
        0.9998953938484192,
        0.9996440410614014,
        1.0
      ],
      "min": [
        -0.9994639158248901,
        -0.9997344613075256,
        -0.9995800256729126,
        -1.0
      ],
      "type": "VEC4"
    },
    {
      "bufferView": 1,
      "byteOffset": 3793312,
      "componentType": 5126,
      "count": 6766,
      "max": [
        0.9999579787254333,
        0.9994940161705017
      ],
      "min": [
        1.9999999494757503e-05,
        0.00011999999696854502
      ],
      "type": "VEC2"
    },
    {
      "bufferView": 0,
      "byteOffset": 9228084,
      "componentType": 5125,
      "count": 24597,
      "type": "SCALAR"
    }
  ],
  "asset": {
    "extras": {
      "author": "Lassi Kaukonen (https://sketchfab.com/thesidekick)",
      "license": "CC-BY-4.0 (http://creativecommons.org/licenses/by/4.0/)",
      "source": "https://sketchfab.com/3d-models/rock-terrain-with-light-snow-e37252871af442e2aeb3571d1d11e65a",
      "title": "Rock terrain with light snow"
    },
    "generator": "Sketchfab-14.51.0",
    "version": "2.0"
  },
  "bufferViews": [
    {
      "buffer": 0,
      "byteLength": 9326472,
      "name": "floatBufferViews",
      "target": 34963
    },
    {
      "buffer": 0,
      "byteLength": 3847440,
      "byteOffset": 9326472,
      "byteStride": 8,
      "name": "floatBufferViews",
      "target": 34962
    },
    {
      "buffer": 0,
      "byteLength": 11542320,
      "byteOffset": 13173912,
      "byteStride": 12,
      "name": "floatBufferViews",
      "target": 34962
    },
    {
      "buffer": 0,
      "byteLength": 7447840,
      "byteOffset": 24716232,
      "byteStride": 16,
      "name": "floatBufferViews",
      "target": 34962
    }
  ],
  "buffers": [
    {
      "byteLength": 32164072,
      "uri": "scene.bin"
    }
  ],
  "images": [
    {
      "uri": "textures/Rock_terrain_with_light_snow_baseColor.jpeg"
    },
    {
      "uri": "textures/Rock_terrain_with_light_snow_metallicRoughness.png"
    },
    {
      "uri": "textures/Rock_terrain_with_light_snow_normal.png"
    }
  ],
  "materials": [
    {
      "doubleSided": true,
      "name": "Base",
      "pbrMetallicRoughness": {
        "baseColorFactor": [
          0.025395,
          0.025395,
          0.025395,
          1.0
        ],
        "metallicFactor": 0.0,
        "roughnessFactor": 0.8063508326896291
      }
    },
    {
      "doubleSided": true,
      "emissiveFactor": [
        0.6552400921602808,
        0.6552400921602808,
        0.6552400921602808
      ],
      "emissiveTexture": {
        "index": 0
      },
      "name": "Rock_terrain_with_light_snow",
      "normalTexture": {
        "index": 2
      },
      "occlusionTexture": {
        "index": 1
      },
      "pbrMetallicRoughness": {
        "baseColorFactor": [
          0.27276273603881457,
          0.27276273603881457,
          0.27276273603881457,
          1.0
        ],
        "baseColorTexture": {
          "index": 0
        },
        "metallicFactor": 0.0,
        "metallicRoughnessTexture": {
          "index": 1
        }
      }
    }
  ],
  "meshes": [
    {
      "name": "Object_0",
      "primitives": [
        {
          "attributes": {
            "NORMAL": 1,
            "POSITION": 0,
            "TEXCOORD_0": 2
          },
          "indices": 3,
          "material": 0,
          "mode": 4
        }
      ]
    },
    {
      "name": "Object_1",
      "primitives": [
        {
          "attributes": {
            "NORMAL": 5,
            "POSITION": 4,
            "TEXCOORD_0": 6
          },
          "indices": 7,
          "material": 0,
          "mode": 4
        }
      ]
    },
    {
      "name": "Object_2",
      "primitives": [
        {
          "attributes": {
            "NORMAL": 9,
            "POSITION": 8,
            "TANGENT": 10,
            "TEXCOORD_0": 11
          },
          "indices": 12,
          "material": 1,
          "mode": 4
        }
      ]
    },
    {
      "name": "Object_3",
      "primitives": [
        {
          "attributes": {
            "NORMAL": 14,
            "POSITION": 13,
            "TANGENT": 15,
            "TEXCOORD_0": 16
          },
          "indices": 17,
          "material": 1,
          "mode": 4
        }
      ]
    },
    {
      "name": "Object_4",
      "primitives": [
        {
          "attributes": {
            "NORMAL": 19,
            "POSITION": 18,
            "TANGENT": 20,
            "TEXCOORD_0": 21
          },
          "indices": 22,
          "material": 1,
          "mode": 4
        }
      ]
    },
    {
      "name": "Object_5",
      "primitives": [
        {
          "attributes": {
            "NORMAL": 24,
            "POSITION": 23,
            "TANGENT": 25,
            "TEXCOORD_0": 26
          },
          "indices": 27,
          "material": 1,
          "mode": 4
        }
      ]
    },
    {
      "name": "Object_6",
      "primitives": [
        {
          "attributes": {
            "NORMAL": 29,
            "POSITION": 28,
            "TANGENT": 30,
            "TEXCOORD_0": 31
          },
          "indices": 32,
          "material": 1,
          "mode": 4
        }
      ]
    },
    {
      "name": "Object_7",
      "primitives": [
        {
          "attributes": {
            "NORMAL": 34,
            "POSITION": 33,
            "TANGENT": 35,
            "TEXCOORD_0": 36
          },
          "indices": 37,
          "material": 1,
          "mode": 4
        }
      ]
    },
    {
      "name": "Object_8",
      "primitives": [
        {
          "attributes": {
            "NORMAL": 39,
            "POSITION": 38,
            "TANGENT": 40,
            "TEXCOORD_0": 41
          },
          "indices": 42,
          "material": 1,
          "mode": 4
        }
      ]
    },
    {
      "name": "Object_9",
      "primitives": [
        {
          "attributes": {
            "NORMAL": 44,
            "POSITION": 43,
            "TANGENT": 45,
            "TEXCOORD_0": 46
          },
          "indices": 47,
          "material": 1,
          "mode": 4
        }
      ]
    }
  ],
  "nodes": [
    {
      "children": [
        1
      ],
      "matrix": [
        1.0,
        0.0,
        0.0,
        0.0,
        0.0,
        2.220446049250313e-16,
        -1.0,
        0.0,
        0.0,
        1.0,
        2.220446049250313e-16,
        0.0,
        0.0,
        0.0,
        0.0,
        1.0
      ],
      "name": "Sketchfab_model"
    },
    {
      "children": [
        2,
        3,
        4,
        5,
        6,
        7,
        8,
        9,
        10,
        11
      ],
      "name": "Rock_terrain_with_light_snow_SF.obj.cleaner.materialmerger.gles"
    },
    {
      "mesh": 0,
      "name": "Object_2"
    },
    {
      "mesh": 1,
      "name": "Object_3"
    },
    {
      "mesh": 2,
      "name": "Object_4"
    },
    {
      "mesh": 3,
      "name": "Object_5"
    },
    {
      "mesh": 4,
      "name": "Object_6"
    },
    {
      "mesh": 5,
      "name": "Object_7"
    },
    {
      "mesh": 6,
      "name": "Object_8"
    },
    {
      "mesh": 7,
      "name": "Object_9"
    },
    {
      "mesh": 8,
      "name": "Object_10"
    },
    {
      "mesh": 9,
      "name": "Object_11"
    }
  ],
  "samplers": [
    {
      "magFilter": 9729,
      "minFilter": 9987,
      "wrapS": 10497,
      "wrapT": 10497
    }
  ],
  "scene": 0,
  "scenes": [
    {
      "name": "Sketchfab_Scene",
      "nodes": [
        0
      ]
    }
  ],
  "textures": [
    {
      "sampler": 0,
      "source": 0
    },
    {
      "sampler": 0,
      "source": 1
    },
    {
      "sampler": 0,
      "source": 2
    }
  ]
}
