{
  "accessors": [
    {
      "bufferView": 2,
      "componentType": 5126,
      "count": 4283,
      "max": [
        4.918849945068359,
        13.578229904174805,
        73.14164733886719
      ],
      "min": [
        0.02597000077366829,
        -13.24940013885498,
        -17.818700790405273
      ],
      "type": "VEC3"
    },
    {
      "bufferView": 2,
      "byteOffset": 51396,
      "componentType": 5126,
      "count": 4283,
      "max": [
        1.0,
        1.0,
        0.9999999403953552
      ],
      "min": [
        -1.0,
        -1.0,
        -1.0
      ],
      "type": "VEC3"
    },
    {
      "bufferView": 3,
      "componentType": 5126,
      "count": 4283,
      "max": [
        0.9999004602432251,
        0.9966592192649841,
        0.9999995231628418,
        1.0
      ],
      "min": [
        -1.0,
        -1.0,
        -0.9999995231628418,
        -1.0
      ],
      "type": "VEC4"
    },
    {
      "bufferView": 1,
      "componentType": 5126,
      "count": 4283,
      "max": [
        0.8073199987411499,
        0.9678900241851807
      ],
      "min": [
        0.19494999945163727,
        0.0348999984562397
      ],
      "type": "VEC2"
    },
    {
      "bufferView": 0,
      "componentType": 5125,
      "count": 24864,
      "type": "SCALAR"
    }
  ],
  "asset": {
    "extras": {
      "author": "Beatriz Frankenstein (https://sketchfab.com/beatrizfrankenstein)",
      "license": "CC-BY-4.0 (http://creativecommons.org/licenses/by/4.0/)",
      "source": "https://sketchfab.com/3d-models/moonlight-dark-souls-715c2e3fca354c4ea1d3597dd74f7609",
      "title": "Moonlight-Dark Souls"
    },
    "generator": "Sketchfab-12.68.0",
    "version": "2.0"
  },
  "bufferViews": [
    {
      "buffer": 0,
      "byteLength": 99456,
      "name": "floatBufferViews",
      "target": 34963
    },
    {
      "buffer": 0,
      "byteLength": 34264,
      "byteOffset": 99456,
      "byteStride": 8,
      "name": "floatBufferViews",
      "target": 34962
    },
    {
      "buffer": 0,
      "byteLength": 102792,
      "byteOffset": 133720,
      "byteStride": 12,
      "name": "floatBufferViews",
      "target": 34962
    },
    {
      "buffer": 0,
      "byteLength": 68528,
      "byteOffset": 236512,
      "byteStride": 16,
      "name": "floatBufferViews",
      "target": 34962
    }
  ],
  "buffers": [
    {
      "byteLength": 305040,
      "uri": "scene.bin"
    }
  ],
  "images": [
    {
      "uri": "textures/moonlight_baseColor.png"
    },
    {
      "uri": "textures/moonlight_normal.png"
    }
  ],
  "materials": [
    {
      "doubleSided": true,
      "emissiveFactor": [
        1.0,
        1.0,
        1.0
      ],
      "emissiveTexture": {
        "index": 1
      },
      "name": "moonlight",
      "normalTexture": {
        "index": 2,
        "scale": 0.0870807927
      },
      "pbrMetallicRoughness": {
        "baseColorTexture": {
          "index": 0
        },
        "roughnessFactor": 0.3736661585
      }
    }
  ],
  "meshes": [
    {
      "name": "Circle_0",
      "primitives": [
        {
          "attributes": {
            "NORMAL": 1,
            "POSITION": 0,
            "TANGENT": 2,
            "TEXCOORD_0": 3
          },
          "indices": 4,
          "material": 0,
          "mode": 4
        }
      ]
    }
  ],
  "nodes": [
    {
      "children": [
        1
      ],
      "matrix": [
        1.0,
        0.0,
        0.0,
        0.0,
        0.0,
        2.220446049250313e-16,
        -1.0,
        0.0,
        0.0,
        1.0,
        2.220446049250313e-16,
        0.0,
        0.0,
        0.0,
        0.0,
        1.0
      ],
      "name": "Sketchfab_model"
    },
    {
      "children": [
        2,
        4
      ],
      "name": "Root"
    },
    {
      "children": [
        3
      ],
      "matrix": [
        -0.29086000000000006,
        0.9551700000000001,
        -0.05519000000000001,
        0.0,
        -0.7711,
        -0.19988000000000003,
        0.6045200000000001,
        0.0,
        0.5663900000000001,
        0.21839000000000003,
        0.7946700000000001,
        0.0,
        4.076250000000001,
        1.00545,
        5.903860000000001,
        1.0
      ],
      "name": "Lamp"
    },
    {
      "name": "Lamp"
    },
    {
      "children": [
        5
      ],
      "matrix": [
        0.22932000000000002,
        0.0,
        0.0,
        0.0,
        0.0,
        0.16048000000000004,
        -0.16380000000000003,
        0.0,
        0.0,
        0.16380000000000003,
        0.16048000000000004,
        0.0,
        -0.6254000000000001,
        -0.037700000000000004,
        -6.324529999999998,
        1.0
      ],
      "name": "Circle"
    },
    {
      "mesh": 0,
      "name": "Circle_0"
    }
  ],
  "samplers": [
    {
      "magFilter": 9729,
      "minFilter": 9987,
      "wrapS": 10497,
      "wrapT": 10497
    },
    {
      "magFilter": 9729,
      "minFilter": 9987,
      "wrapS": 33071,
      "wrapT": 10497
    }
  ],
  "scene": 0,
  "scenes": [
    {
      "name": "Sketchfab_Scene",
      "nodes": [
        0
      ]
    }
  ],
  "textures": [
    {
      "sampler": 0,
      "source": 0
    },
    {
      "sampler": 1,
      "source": 0
    },
    {
      "sampler": 0,
      "source": 1
    }
  ]
}
