{
  "accessors": [
    {
      "bufferView": 2,
      "componentType": 5126,
      "count": 12941,
      "max": [
        11.460289001464844,
        77.6953125,
        11.460289001464844
      ],
      "min": [
        -11.460289001464844,
        -560.94091796875,
        -11.460289001464844
      ],
      "type": "VEC3"
    },
    {
      "bufferView": 2,
      "byteOffset": 155292,
      "componentType": 5126,
      "count": 12941,
      "max": [
        1.0,
        1.0,
        1.0
      ],
      "min": [
        -1.0,
        -1.0,
        -1.0
      ],
      "type": "VEC3"
    },
    {
      "bufferView": 3,
      "componentType": 5126,
      "count": 12941,
      "max": [
        1.0,
        1.0,
        1.0,
        1.0
      ],
      "min": [
        -1.0,
        -1.0,
        -1.0,
        -1.0
      ],
      "type": "VEC4"
    },
    {
      "bufferView": 1,
      "componentType": 5126,
      "count": 12941,
      "max": [
        0.9912039637565613,
        0.9840744137763977
      ],
      "min": [
        0.014034826308488846,
        0.010967731475830078
      ],
      "type": "VEC2"
    },
    {
      "bufferView": 1,
      "byteOffset": 103528,
      "componentType": 5126,
      "count": 12941,
      "max": [
        0.9608553647994995,
        0.9798632264137268
      ],
      "min": [
        0.0,
        -0.26466506719589233
      ],
      "type": "VEC2"
    },
    {
      "bufferView": 1,
      "byteOffset": 207056,
      "componentType": 5126,
      "count": 12941,
      "max": [
        0.9908446669578552,
        0.9460263848304749
      ],
      "min": [
        -0.8231500387191772,
        0.0
      ],
      "type": "VEC2"
    },
    {
      "bufferView": 1,
      "byteOffset": 310584,
      "componentType": 5126,
      "count": 12941,
      "max": [
        0.9912039637565613,
        0.9840744137763977
      ],
      "min": [
        0.014034826308488846,
        0.010967731475830078
      ],
      "type": "VEC2"
    },
    {
      "bufferView": 1,
      "byteOffset": 414112,
      "componentType": 5126,
      "count": 12941,
      "max": [
        0.9912039637565613,
        0.9840744137763977
      ],
      "min": [
        0.014034826308488846,
        0.010967731475830078
      ],
      "type": "VEC2"
    },
    {
      "bufferView": 1,
      "byteOffset": 517640,
      "componentType": 5126,
      "count": 12941,
      "max": [
        0.9912039637565613,
        0.9840744137763977
      ],
      "min": [
        0.014034826308488846,
        0.010967731475830078
      ],
      "type": "VEC2"
    },
    {
      "bufferView": 1,
      "byteOffset": 621168,
      "componentType": 5126,
      "count": 12941,
      "max": [
        0.9912039637565613,
        0.9840744137763977
      ],
      "min": [
        0.014034826308488846,
        0.010967731475830078
      ],
      "type": "VEC2"
    },
    {
      "bufferView": 0,
      "componentType": 5125,
      "count": 33087,
      "type": "SCALAR"
    },
    {
      "bufferView": 2,
      "byteOffset": 310584,
      "componentType": 5126,
      "count": 2534,
      "max": [
        25.326847076416016,
        0.5561050176620483,
        25.715429306030273
      ],
      "min": [
        -25.112340927124023,
        -0.5308207273483276,
        -25.76900291442871
      ],
      "type": "VEC3"
    },
    {
      "bufferView": 2,
      "byteOffset": 340992,
      "componentType": 5126,
      "count": 2534,
      "max": [
        0.9599317908287048,
        1.0,
        0.1722847819328308
      ],
      "min": [
        -0.9418519735336304,
        -0.9763351082801819,
        -0.17349642515182495
      ],
      "type": "VEC3"
    },
    {
      "bufferView": 3,
      "byteOffset": 207056,
      "componentType": 5126,
      "count": 2534,
      "max": [
        0.9999995827674866,
        0.937350869178772,
        0.8235843777656555,
        1.0
      ],
      "min": [
        -0.9790353178977966,
        -0.9753730297088623,
        -0.294004887342453,
        -1.0
      ],
      "type": "VEC4"
    },
    {
      "bufferView": 1,
      "byteOffset": 724696,
      "componentType": 5126,
      "count": 2534,
      "max": [
        1.0,
        1.0
      ],
      "min": [
        0.0,
        0.0
      ],
      "type": "VEC2"
    },
    {
      "bufferView": 1,
      "byteOffset": 744968,
      "componentType": 5126,
      "count": 2534,
      "max": [
        1.0,
        1.0
      ],
      "min": [
        0.0,
        0.0
      ],
      "type": "VEC2"
    },
    {
      "bufferView": 0,
      "byteOffset": 132348,
      "componentType": 5125,
      "count": 13347,
      "type": "SCALAR"
    }
  ],
  "asset": {
    "extras": {
      "author": "MisterH (https://sketchfab.com/TGVMisterH)",
      "license": "CC-BY-4.0 (http://creativecommons.org/licenses/by/4.0/)",
      "source": "https://sketchfab.com/3d-models/harbor-navigation-buoy-62f7c151f4c048508b8cf5526f8588f9",
      "title": "Harbor Navigation Buoy"
    },
    "generator": "Sketchfab-15.28.0",
    "version": "2.0"
  },
  "bufferViews": [
    {
      "buffer": 0,
      "byteLength": 185736,
      "name": "floatBufferViews",
      "target": 34963
    },
    {
      "buffer": 0,
      "byteLength": 765240,
      "byteOffset": 185736,
      "byteStride": 8,
      "name": "floatBufferViews",
      "target": 34962
    },
    {
      "buffer": 0,
      "byteLength": 371400,
      "byteOffset": 950976,
      "byteStride": 12,
      "name": "floatBufferViews",
      "target": 34962
    },
    {
      "buffer": 0,
      "byteLength": 247600,
      "byteOffset": 1322376,
      "byteStride": 16,
      "name": "floatBufferViews",
      "target": 34962
    }
  ],
  "buffers": [
    {
      "byteLength": 1569976,
      "uri": "scene.bin"
    }
  ],
  "extensionsUsed": [
    "KHR_materials_emissive_strength",
    "KHR_materials_transmission"
  ],
  "images": [
    {
      "uri": "textures/Navigation_Buoy_4k_baseColor.png"
    },
    {
      "uri": "textures/Navigation_Buoy_4k_metallicRoughness.png"
    },
    {
      "uri": "textures/Navigation_Buoy_4k_emissive.png"
    },
    {
      "uri": "textures/Navigation_Buoy_4k_normal.png"
    },
    {
      "uri": "textures/Navigation_Buoy_4k_transmission.png"
    },
    {
      "uri": "textures/Sea_Mat_baseColor.png"
    },
    {
      "uri": "textures/Sea_Mat_normal.png"
    }
  ],
  "materials": [
    {
      "alphaCutoff": 1.0,
      "alphaMode": "MASK",
      "doubleSided": true,
      "emissiveFactor": [
        1.0,
        1.0,
        1.0
      ],
      "emissiveTexture": {
        "index": 2
      },
      "extensions": {
        "KHR_materials_emissive_strength": {
          "emissiveStrength": 10.0
        },
        "KHR_materials_transmission": {
          "transmissionFactor": 1.0,
          "transmissionTexture": {
            "index": 4
          }
        }
      },
      "name": "Navigation_Buoy_4k",
      "normalTexture": {
        "index": 3,
        "scale": 0.19991562616092734
      },
      "occlusionTexture": {
        "index": 1
      },
      "pbrMetallicRoughness": {
        "baseColorTexture": {
          "index": 0
        },
        "metallicRoughnessTexture": {
          "index": 1
        }
      }
    },
    {
      "alphaMode": "BLEND",
      "doubleSided": true,
      "name": "Sea_Mat",
      "normalTexture": {
        "index": 6
      },
      "pbrMetallicRoughness": {
        "baseColorFactor": [
          0.08657763337677955,
          0.08657763337677955,
          0.08657763337677955,
          0.9492056895672377
        ],
        "baseColorTexture": {
          "index": 5
        },
        "metallicFactor": 0.0,
        "roughnessFactor": 0.0
      }
    }
  ],
  "meshes": [
    {
      "name": "Object_0",
      "primitives": [
        {
          "attributes": {
            "NORMAL": 1,
            "POSITION": 0,
            "TANGENT": 2,
            "TEXCOORD_0": 3,
            "TEXCOORD_1": 4,
            "TEXCOORD_2": 5,
            "TEXCOORD_3": 6,
            "TEXCOORD_4": 7,
            "TEXCOORD_5": 8,
            "TEXCOORD_6": 9
          },
          "indices": 10,
          "material": 0,
          "mode": 4
        }
      ]
    },
    {
      "name": "Object_1",
      "primitives": [
        {
          "attributes": {
            "NORMAL": 12,
            "POSITION": 11,
            "TANGENT": 13,
            "TEXCOORD_0": 14,
            "TEXCOORD_1": 15
          },
          "indices": 16,
          "material": 1,
          "mode": 4
        }
      ]
    }
  ],
  "nodes": [
    {
      "children": [
        1
      ],
      "matrix": [
        1.0,
        0.0,
        0.0,
        0.0,
        0.0,
        2.220446049250313e-16,
        -1.0,
        0.0,
        0.0,
        1.0,
        2.220446049250313e-16,
        0.0,
        0.0,
        0.0,
        0.0,
        1.0
      ],
      "name": "Sketchfab_model"
    },
    {
      "children": [
        2
      ],
      "name": "root"
    },
    {
      "children": [
        3,
        5
      ],
      "matrix": [
        1.0,
        0.0,
        0.0,
        0.0,
        0.0,
        2.220446049250313e-16,
        1.0,
        0.0,
        0.0,
        -1.0,
        2.220446049250313e-16,
        0.0,
        0.0,
        0.0,
        0.0,
        1.0
      ],
      "name": "GLTF_SceneRootNode"
    },
    {
      "children": [
        4
      ],
      "matrix": [
        0.08725783973932266,
        0.0,
        0.0,
        0.0,
        0.0,
        0.008355029858648777,
        0.0,
        0.0,
        0.0,
        0.0,
        0.08725783973932266,
        0.0,
        0.0,
        3.645623207092285,
        0.0,
        1.0
      ],
      "name": "Navigation_Buoy_0"
    },
    {
      "mesh": 0,
      "name": "Object_4"
    },
    {
      "children": [
        6
      ],
      "matrix": [
        0.540517270565033,
        0.0,
        0.0,
        0.0,
        0.0,
        0.540517270565033,
        0.0,
        0.0,
        0.0,
        0.0,
        0.540517270565033,
        0.0,
        0.0,
        0.01656484603881836,
        0.0,
        1.0
      ],
      "name": "Sea_1"
    },
    {
      "mesh": 1,
      "name": "Object_6"
    }
  ],
  "samplers": [
    {
      "magFilter": 9729,
      "minFilter": 9987,
      "wrapS": 10497,
      "wrapT": 10497
    }
  ],
  "scene": 0,
  "scenes": [
    {
      "name": "Sketchfab_Scene",
      "nodes": [
        0
      ]
    }
  ],
  "textures": [
    {
      "sampler": 0,
      "source": 0
    },
    {
      "sampler": 0,
      "source": 1
    },
    {
      "sampler": 0,
      "source": 2
    },
    {
      "sampler": 0,
      "source": 3
    },
    {
      "sampler": 0,
      "source": 4
    },
    {
      "sampler": 0,
      "source": 5
    },
    {
      "sampler": 0,
      "source": 6
    }
  ]
}
