{
	"asset":{
		"generator":"Khronos glTF Blender I/O v3.5.30",
		"version":"2.0"
	},
	"scene":0,
	"scenes":[
		{
			"name":"Scene",
			"nodes":[
				3
			]
		}
	],
	"nodes":[
		{
			"mesh":0,
			"name":"Object_2",
			"translation":[
				-0.0008014527847990394,
				0.013638028874993324,
				1.505043625831604
			]
		},
		{
			"mesh":1,
			"name":"Object_4",
			"translation":[
				9.155255611403845e-06,
				-0.00714627280831337,
				1.459900975227356
			]
		},
		{
			"children":[
				0,
				1
			],
			"name":"Rei_A-Pose_2.obj.cleaner.materialmerger.gles"
		},
		{
			"children":[
				2
			],
			"name":"Sketchfab_model",
			"rotation":[
				-0.70710688829422,
				0,
				0,
				0.7071066498756409
			]
		}
	],
	"materials":[
		{
			"doubleSided":true,
			"name":"Hair",
			"normalTexture":{
				"index":0
			},
			"occlusionTexture":{
				"index":1
			},
			"pbrMetallicRoughness":{
				"baseColorTexture":{
					"index":2
				},
				"metallicRoughnessTexture":{
					"index":1
				}
			}
		},
		{
			"doubleSided":true,
			"name":"Head",
			"normalTexture":{
				"index":3
			},
			"occlusionTexture":{
				"index":4
			},
			"pbrMetallicRoughness":{
				"baseColorTexture":{
					"index":5
				},
				"metallicRoughnessTexture":{
					"index":4
				}
			}
		}
	],
	"meshes":[
		{
			"name":"Object_0",
			"primitives":[
				{
					"attributes":{
						"POSITION":0,
						"TEXCOORD_0":1,
						"NORMAL":2
					},
					"indices":3,
					"material":0
				}
			]
		},
		{
			"name":"Object_2",
			"primitives":[
				{
					"attributes":{
						"POSITION":4,
						"TEXCOORD_0":5,
						"NORMAL":6
					},
					"indices":7,
					"material":1
				}
			]
		}
	],
	"textures":[
		{
			"sampler":0,
			"source":0
		},
		{
			"sampler":0,
			"source":1
		},
		{
			"sampler":0,
			"source":2
		},
		{
			"sampler":0,
			"source":3
		},
		{
			"sampler":0,
			"source":4
		},
		{
			"sampler":0,
			"source":5
		}
	],
	"images":[
		{
			"mimeType":"image/png",
			"name":"Hair_normal",
			"uri":"Hair_normal.png"
		},
		{
			"mimeType":"image/png",
			"name":"Hair_metallicRoughness",
			"uri":"Hair_metallicRoughness.png"
		},
		{
			"mimeType":"image/png",
			"name":"Hair_baseColor",
			"uri":"Hair_baseColor.png"
		},
		{
			"mimeType":"image/png",
			"name":"Head_normal",
			"uri":"Head_normal.png"
		},
		{
			"mimeType":"image/png",
			"name":"Head_metallicRoughness",
			"uri":"Head_metallicRoughness.png"
		},
		{
			"mimeType":"image/png",
			"name":"Head_baseColor",
			"uri":"Head_baseColor.png"
		}
	],
	"accessors":[
		{
			"bufferView":0,
			"componentType":5126,
			"count":4831,
			"max":[
				0.11493346095085144,
				0.12507496774196625,
				0.09581844508647919
			],
			"min":[
				-0.11608853936195374,
				-0.13233903050422668,
				-0.14129455387592316
			],
			"type":"VEC3"
		},
		{
			"bufferView":1,
			"componentType":5126,
			"count":4831,
			"type":"VEC2"
		},
		{
			"bufferView":2,
			"componentType":5126,
			"count":4831,
			"type":"VEC3"
		},
		{
			"bufferView":3,
			"componentType":5123,
			"count":25119,
			"type":"SCALAR"
		},
		{
			"bufferView":4,
			"componentType":5126,
			"count":34854,
			"max":[
				0.08947984129190445,
				0.1132722795009613,
				0.12254910171031952
			],
			"min":[
				-0.08949815481901169,
				-0.09708572924137115,
				-0.11816616356372833
			],
			"type":"VEC3"
		},
		{
			"bufferView":5,
			"componentType":5126,
			"count":34854,
			"type":"VEC2"
		},
		{
			"bufferView":6,
			"componentType":5126,
			"count":34854,
			"type":"VEC3"
		},
		{
			"bufferView":7,
			"componentType":5123,
			"count":106404,
			"type":"SCALAR"
		}
	],
	"bufferViews":[
		{
			"buffer":0,
			"byteLength":57972,
			"byteOffset":0,
			"target":34962
		},
		{
			"buffer":0,
			"byteLength":38648,
			"byteOffset":57972,
			"target":34962
		},
		{
			"buffer":0,
			"byteLength":57972,
			"byteOffset":96620,
			"target":34962
		},
		{
			"buffer":0,
			"byteLength":50238,
			"byteOffset":154592,
			"target":34963
		},
		{
			"buffer":0,
			"byteLength":418248,
			"byteOffset":204832,
			"target":34962
		},
		{
			"buffer":0,
			"byteLength":278832,
			"byteOffset":623080,
			"target":34962
		},
		{
			"buffer":0,
			"byteLength":418248,
			"byteOffset":901912,
			"target":34962
		},
		{
			"buffer":0,
			"byteLength":212808,
			"byteOffset":1320160,
			"target":34963
		}
	],
	"samplers":[
		{
			"magFilter":9729,
			"minFilter":9987
		}
	],
	"buffers":[
		{
			"byteLength":1532968,
			"uri":"rei_head.bin"
		}
	]
}
